<?xml version="1.0" standalone="no"?>
<svg xmlns:xlink="http://www.w3.org/1999/xlink" id="wave" style="transform:rotate(0deg); transition: 0.3s" viewBox="0 0 1440 490" version="1.1" xmlns="http://www.w3.org/2000/svg"><defs><linearGradient id="sw-gradient-0" x1="0" x2="0" y1="1" y2="0"><stop stop-color="rgba(241, 243, 245, 1)" offset="0%"/><stop stop-color="rgba(255, 255, 255, 1)" offset="100%"/></linearGradient></defs><path style="transform:translate(0, 0px); opacity:1" fill="url(#sw-gradient-0)" d="M0,392L120,375.7C240,359,480,327,720,326.7C960,327,1200,359,1440,375.7C1680,392,1920,392,2160,326.7C2400,261,2640,131,2880,106.2C3120,82,3360,163,3600,196C3840,229,4080,212,4320,171.5C4560,131,4800,65,5040,40.8C5280,16,5520,33,5760,32.7C6000,33,6240,16,6480,24.5C6720,33,6960,65,7200,106.2C7440,147,7680,196,7920,212.3C8160,229,8400,212,8640,212.3C8880,212,9120,229,9360,212.3C9600,196,9840,147,10080,106.2C10320,65,10560,33,10800,32.7C11040,33,11280,65,11520,89.8C11760,114,12000,131,12240,122.5C12480,114,12720,82,12960,73.5C13200,65,13440,82,13680,106.2C13920,131,14160,163,14400,155.2C14640,147,14880,98,15120,130.7C15360,163,15600,278,15840,318.5C16080,359,16320,327,16560,326.7C16800,327,17040,359,17160,375.7L17280,392L17280,490L17160,490C17040,490,16800,490,16560,490C16320,490,16080,490,15840,490C15600,490,15360,490,15120,490C14880,490,14640,490,14400,490C14160,490,13920,490,13680,490C13440,490,13200,490,12960,490C12720,490,12480,490,12240,490C12000,490,11760,490,11520,490C11280,490,11040,490,10800,490C10560,490,10320,490,10080,490C9840,490,9600,490,9360,490C9120,490,8880,490,8640,490C8400,490,8160,490,7920,490C7680,490,7440,490,7200,490C6960,490,6720,490,6480,490C6240,490,6000,490,5760,490C5520,490,5280,490,5040,490C4800,490,4560,490,4320,490C4080,490,3840,490,3600,490C3360,490,3120,490,2880,490C2640,490,2400,490,2160,490C1920,490,1680,490,1440,490C1200,490,960,490,720,490C480,490,240,490,120,490L0,490Z"/></svg>